<?xml version="1.0" encoding="UTF-8"?>
<svg id="_레이어_1" data-name="레이어 1" xmlns="http://www.w3.org/2000/svg" viewBox="0 0 500 500">
  <defs>
    <style>
      .cls-1 {
        fill: #fff;
      }
    </style>
  </defs>
  <g>
    <path class="cls-1" d="M397.37,305.13c13.43,30.8,43.61,60.82,22.11,94.85-7.26,11.5-22.25,19.82-34.25,25.87-11.67,5.88-23.2,7.62-36.32,4.65-27.83-6.3-55.87-16.83-83.75-23.48-19.43-7.02-9.56-32.73,11.81-31.39,12.03.76,24.42,3.55,36.5,4.24l-45.8-78.64c-5.67-16.13,11.77-29.4,26.03-19.6,6.99,4.8,10.72,18.15,16.09,24.47.26.31.24.62.85.63,4.67-8.08,15.41-10.11,23.54-5.21.96.58,4.68,4.18,5.05,4.01,5.52-10.28,20.55-10.42,28.01-1.36,7.63-10.78,22.59-10.78,30.12.97ZM384.03,305.37c-5.49-1.29-10.1,3.18-9.91,8.67.08,2.42,2.56,4.51,1.95,7.25-.8,3.53-5.21,4.51-7.74,1.81-3.36-3.6-5.77-12.69-10.36-15.24-5.66-3.14-11.86.07-12.36,6.39-.41,5.19,6.42,12.09,8.16,16.81,1.92,5.2-4.28,8.68-8.35,3.47-5.38-6.91-8.99-17.31-14.61-24.35-5.77-5.08-14.26-1.2-13.7,6.51.41,5.73,11.68,19.96,14.43,26.37,2.78,6.5-5.55,9.21-8.52,3.24l-32.88-55.89c-6.18-6.48-15.61-1.85-14.32,6.86,16.06,29.52,34.19,58.07,50.68,87.39.44,3.83-1.46,5.45-5.15,5.4-12.07-.18-27.22-3.52-39.66-4.78-4.64-.47-9.14-1.7-13.26,1.02-4.97,3.28-7.11,10.77.43,12.57,26.66,6.45,53.36,16.26,79.98,22.42,20.39,4.72,33.4-3.04,49.68-13.53,18.46-11.89,24.39-32.53,14.86-52.96-7.07-15.18-16.56-29.88-23.74-45.08-1.31-2.09-3.17-3.74-5.62-4.32Z"/>
    <path class="cls-1" d="M291.6,255.82c13.22,2.81,24.68,12.66,29.82,25.11,1.44,3.48,5.09,13.5-1.27,13.82-5.83.3-5.78-7.88-7.81-12.18-9.68-20.48-37.52-24.99-52.24-8.53-9.85,11.02-10.36,27.2-1.67,39.5,2.56,3.63,11.88,9.71,5.23,13.7-3.49,2.09-7.13-2.21-9.35-4.63-27.02-29.47-1.42-75.02,37.29-66.79Z"/>
    <path class="cls-1" d="M384.03,305.37c2.45.58,4.31,2.23,5.62,4.32,7.18,15.2,16.67,29.91,23.74,45.08,9.52,20.44,3.6,41.07-14.86,52.96-16.29,10.49-29.3,18.25-49.68,13.53-26.62-6.16-53.32-15.97-79.98-22.42-7.54-1.8-5.4-9.29-.43-12.57,4.12-2.72,8.62-1.49,13.26-1.02,12.44,1.26,27.59,4.6,39.66,4.78,3.7.06,5.59-1.57,5.15-5.4-16.48-29.32-34.62-57.87-50.68-87.39-1.29-8.71,8.14-13.34,14.32-6.86l32.88,55.89c2.97,5.97,11.3,3.26,8.52-3.24-2.74-6.41-14.01-20.64-14.43-26.37-.56-7.71,7.93-11.59,13.7-6.51,5.62,7.03,9.23,17.44,14.61,24.35,4.06,5.22,10.26,1.74,8.35-3.47-1.74-4.72-8.57-11.62-8.16-16.81.5-6.31,6.7-9.53,12.36-6.39,4.59,2.55,7,11.64,10.36,15.24,2.53,2.7,6.94,1.72,7.74-1.81.62-2.73-1.87-4.83-1.95-7.25-.19-5.48,4.43-9.96,9.91-8.67Z"/>
  </g>
  <path class="cls-1" d="M457.24,68.07H42.76c-17.55,0-31.77,14.94-31.77,33.37v269.38c0,18.43,14.22,33.37,31.77,33.37h207.88c-4.13-5.8-3.33-13.71.96-19.96H42.76c-7.04,0-12.77-6.02-12.77-13.41V101.45c0-7.4,5.73-13.41,12.77-13.41h414.47c7.04,0,12.77,6.02,12.77,13.41v269.38c0,7.4-5.73,13.41-12.77,13.41h-24.03c-1.36,5.02-3.53,10.12-6.69,15.31-.97,1.6-2.07,3.15-3.27,4.65h33.99c17.55,0,31.77-14.94,31.77-33.37V101.45c0-18.43-14.22-33.37-31.77-33.37Z"/>
  <path class="cls-1" d="M437.51,95.47H62.49c-10.64,0-19.27,9.06-19.27,20.24v218.01c0,11.18,8.63,20.24,19.27,20.24h229.07l-10.86-15.76H62.49c-2.9,0-5.27-2.49-5.27-5.53V115.71c0-3.04,2.37-5.53,5.27-5.53h375.03c2.35,0,4.27,2.02,4.27,4.48v219.06c0,1.89-1.47,3.43-3.27,3.43h-17.33c3.12,6.58,5.81,10.07,7.59,16.81h4.74c12.8,0,23.27-11,23.27-24.44V115.71c0-11.18-8.63-20.24-19.27-20.24Z"/>
  <ellipse class="cls-1" cx="250" cy="368.09" rx="9.38" ry="9.85"/>
</svg>