<?xml version="1.0" encoding="UTF-8"?>
<svg id="_레이어_1" data-name="레이어 1" xmlns="http://www.w3.org/2000/svg" viewBox="0 0 500 500">
  <defs>
    <style>
      .cls-1 {
        fill: #fff;
      }
    </style>
  </defs>
  <path class="cls-1" d="M453.38,366.76H46.62c-19.7,0-35.73-16.03-35.73-35.73V94.58c0-19.7,16.03-35.73,35.73-35.73h406.76c19.7,0,35.73,16.03,35.73,35.73v236.45c0,19.7-16.03,35.73-35.73,35.73ZM46.62,78.85c-8.67,0-15.73,7.06-15.73,15.73v236.45c0,8.67,7.06,15.73,15.73,15.73h406.76c8.67,0,15.73-7.06,15.73-15.73V94.58c0-8.67-7.06-15.73-15.73-15.73H46.62Z"/>
  <rect class="cls-1" x="20.89" y="290.11" width="458.22" height="20"/>
  <g>
    <rect class="cls-1" x="193.59" y="356.76" width="20" height="39.22"/>
    <rect class="cls-1" x="286.41" y="356.76" width="20" height="39.22"/>
  </g>
  <g>
    <path class="cls-1" d="M364.92,431.15h-229.83c-6.19,0-10.35-6.35-7.88-12.02l7.83-17.99c1.36-3.13,4.46-5.16,7.88-5.16h214.96c3.54,0,6.71,2.17,8,5.46l7.04,17.99c2.21,5.63-1.95,11.72-8,11.72Z"/>
    <path class="cls-1" d="M364.92,441.15h-229.83c-6.29,0-12.1-3.14-15.55-8.4-3.45-5.26-4.01-11.84-1.49-17.61l7.83-17.99c2.95-6.78,9.64-11.17,17.04-11.17h214.96c7.71,0,14.5,4.64,17.31,11.81l7.04,17.99c2.24,5.73,1.51,12.18-1.96,17.25-3.47,5.08-9.21,8.11-15.36,8.11ZM137.23,421.15h225.62l-5.94-15.17h-213.08l-6.6,15.17Z"/>
  </g>
  <circle class="cls-1" cx="365.47" cy="328.35" r="11.07"/>
  <circle class="cls-1" cx="395.98" cy="328.35" r="11.07"/>
  <circle class="cls-1" cx="426.5" cy="328.35" r="11.07"/>
</svg>