<?xml version="1.0" encoding="UTF-8"?>
<svg id="_레이어_1" data-name="레이어 1" xmlns="http://www.w3.org/2000/svg" viewBox="0 0 500 500">
  <defs>
    <style>
      .cls-1 {
        fill: #fff;
      }
    </style>
  </defs>
  <path class="cls-1" d="M297.66,323.93H37.06c-3.08,0-5.59-2.51-5.59-5.59v-182.67h151.16c6.44,0,12.63-2.56,17.18-7.12l26.65-26.65c4.56-4.56,10.74-7.12,17.18-7.12h191.24v68.83h20.47v-84.99c0-14.4-11.67-26.07-26.07-26.07H37.06c-14.4,0-26.07,11.67-26.07,26.07v239.71c0,14.4,11.67,26.07,26.07,26.07h260.6v-20.47ZM144.05,78.22c7.54,0,13.65,6.11,13.65,13.65s-6.11,13.65-13.65,13.65-13.65-6.11-13.65-13.65,6.11-13.65,13.65-13.65ZM97.07,78.22c7.54,0,13.65,6.11,13.65,13.65s-6.11,13.65-13.65,13.65-13.65-6.11-13.65-13.65,6.11-13.65,13.65-13.65ZM50.08,78.22c7.54,0,13.65,6.11,13.65,13.65s-6.11,13.65-13.65,13.65-13.65-6.11-13.65-13.65,6.11-13.65,13.65-13.65Z"/>
  <path class="cls-1" d="M431.47,417.02h-64.65c-4.08,0-7.39-3.31-7.39-7.39s3.31-7.39,7.39-7.39h64.65c4.08,0,7.39,3.31,7.39,7.39s-3.31,7.39-7.39,7.39Z"/>
  <path class="cls-1" d="M459.47,447.44h-120.66c-16.28,0-29.53-13.25-29.53-29.53v-218.62c0-16.29,13.25-29.53,29.53-29.53h120.66c16.28,0,29.53,13.25,29.53,29.53v218.62c0,16.28-13.25,29.53-29.53,29.53ZM338.82,187.95c-6.25,0-11.34,5.09-11.34,11.34v218.62c0,6.25,5.09,11.34,11.34,11.34h120.66c6.25,0,11.34-5.08,11.34-11.34v-218.62c0-6.25-5.09-11.34-11.34-11.34h-120.66Z"/>
</svg>