<?xml version="1.0" encoding="UTF-8"?>
<svg id="_레이어_1" data-name="레이어 1" xmlns="http://www.w3.org/2000/svg" viewBox="0 0 500 500">
  <path d="M295.9,319.01H66.77c-2.71,0-4.92-2.21-4.92-4.92v-160.61h132.91c5.67,0,11.1-2.25,15.11-6.26l23.43-23.43c4.01-4.01,9.44-6.26,15.11-6.26h168.15v60.52h18v-74.73c0-12.66-10.26-22.92-22.92-22.92H66.77c-12.66,0-22.92,10.26-22.92,22.92v210.77c0,12.66,10.26,22.92,22.92,22.92h229.14v-18ZM160.85,102.96c6.63,0,12,5.37,12,12s-5.37,12-12,12-12-5.37-12-12,5.37-12,12-12ZM119.53,102.96c6.63,0,12,5.37,12,12s-5.37,12-12,12-12-5.37-12-12,5.37-12,12-12ZM78.22,102.96c6.63,0,12,5.37,12,12s-5.37,12-12,12-12-5.37-12-12,5.37-12,12-12Z"/>
  <path d="M413.56,400.85h-56.84c-3.59,0-6.5-2.91-6.5-6.5s2.91-6.5,6.5-6.5h56.84c3.59,0,6.5,2.91,6.5,6.5s-2.91,6.5-6.5,6.5Z"/>
  <path d="M438.18,427.6h-106.09c-14.32,0-25.97-11.65-25.97-25.97v-192.22c0-14.32,11.65-25.97,25.97-25.97h106.09c14.32,0,25.97,11.65,25.97,25.97v192.22c0,14.32-11.65,25.97-25.97,25.97ZM332.09,199.44c-5.5,0-9.97,4.47-9.97,9.97v192.22c0,5.5,4.47,9.97,9.97,9.97h106.09c5.5,0,9.97-4.47,9.97-9.97v-192.22c0-5.5-4.47-9.97-9.97-9.97h-106.09Z"/>
</svg>