<?xml version="1.0" encoding="UTF-8"?>
<svg id="_레이어_1" data-name="레이어 1" xmlns="http://www.w3.org/2000/svg" viewBox="0 0 500 500">
  <defs>
    <style>
      .cls-1 {
        fill: #fff;
      }
    </style>
  </defs>
  <path class="cls-1" d="M287.92,428.72h-106.57c-6.73,0-12.19-5.46-12.19-12.19s5.46-12.19,12.19-12.19h106.57c6.73,0,12.19,5.46,12.19,12.19s-5.46,12.19-12.19,12.19Z"/>
  <path class="cls-1" d="M372.17,372.49c-6.45,3.32-12.84,5.53-19.4,6.59v51.11c0,10.3-8.38,18.69-18.69,18.69h-198.89c-10.3,0-18.69-8.38-18.69-18.69V69.81c0-10.3,8.38-18.69,18.69-18.69h198.89c10.3,0,18.69,8.38,18.69,18.69v163.55c.29.31.57.63.84.96,7.3-10.22,20.17-12.17,29.15-5.11V69.81c0-26.84-21.84-48.68-48.68-48.68h-198.89c-26.84,0-48.68,21.84-48.68,48.68v360.37c0,26.84,21.84,48.68,48.68,48.68h198.89c26.84,0,48.68-21.84,48.68-48.68v-63.41c-3.62,2.07-7.21,3.98-10.59,5.72Z"/>
  <g>
    <path class="cls-1" d="M385.54,244.68c12.69,29.99,41.77,58.96,20.27,92.63-7.26,11.38-22.03,19.76-33.85,25.86-11.49,5.93-22.78,7.82-35.57,5.1-27.12-5.76-54.38-15.66-81.54-21.76-18.9-6.59-8.88-31.94,11.99-30.94,11.75.56,23.83,3.12,35.63,3.61l-43.65-76.39c-5.31-15.72,11.92-28.99,25.72-19.6,6.76,4.6,10.22,17.63,15.38,23.74.25.3.23.61.82.61,4.68-7.99,15.21-10.14,23.08-5.46.93.55,4.51,4.03,4.88,3.85,5.54-10.16,20.24-10.52,27.4-1.75,7.61-10.68,22.24-10.9,29.43.5ZM372.49,245.11c-5.34-1.18-9.92,3.27-9.82,8.64.05,2.37,2.44,4.39,1.8,7.07-.83,3.47-5.16,4.5-7.59,1.88-3.23-3.47-5.46-12.35-9.91-14.78-5.48-2.99-11.6.25-12.17,6.45-.47,5.09,6.1,11.75,7.74,16.35,1.8,5.07-4.31,8.57-8.21,3.52-5.16-6.69-8.54-16.83-13.93-23.64-5.57-4.89-13.92-.97-13.49,6.58.32,5.61,11.14,19.39,13.73,25.63,2.63,6.33-5.55,9.11-8.37,3.3l-31.35-54.29c-5.95-6.26-15.24-1.58-14.1,6.94,15.28,28.69,32.6,56.4,48.3,84.89.38,3.74-1.5,5.37-5.11,5.37-11.8,0-26.56-3.05-38.7-4.09-4.53-.39-8.91-1.53-12.98,1.2-4.91,3.29-7.11,10.66.24,12.31,25.97,5.92,51.93,15.14,77.87,20.78,19.86,4.32,32.69-3.48,48.76-14.01,18.22-11.93,24.3-32.24,15.28-52.13-6.7-14.77-15.77-29.04-22.57-43.83-1.25-2.03-3.05-3.62-5.43-4.15Z"/>
    <path class="cls-1" d="M282.84,197.93c12.88,2.55,23.94,12.04,28.8,24.16,1.36,3.39,4.78,13.15-1.44,13.56-5.7.38-5.54-7.64-7.46-11.82-9.17-19.93-36.32-23.93-50.95-7.58-9.79,10.94-10.51,26.82-2.2,38.74,2.45,3.51,11.48,9.34,4.91,13.35-3.44,2.1-6.94-2.06-9.08-4.4-26-28.48-.32-73.5,37.41-66.02Z"/>
    <path class="cls-1" d="M372.49,245.11c2.39.53,4.18,2.12,5.43,4.15,6.8,14.79,15.87,29.06,22.57,43.83,9.02,19.89,2.93,40.2-15.28,52.13-16.07,10.52-28.9,18.32-48.76,14.01-25.94-5.64-51.9-14.86-77.87-20.78-7.35-1.65-5.15-9.02-.24-12.31,4.07-2.73,8.45-1.59,12.98-1.2,12.14,1.04,26.9,4.09,38.7,4.09,3.61,0,5.49-1.62,5.11-5.37-15.7-28.49-33.02-56.2-48.3-84.89-1.14-8.52,8.15-13.2,14.1-6.94l31.35,54.29c2.82,5.81,11,3.03,8.37-3.3-2.59-6.24-13.4-20.02-13.73-25.63-.43-7.55,7.92-11.47,13.49-6.58,5.39,6.81,8.77,16.95,13.93,23.64,3.9,5.05,10.01,1.55,8.21-3.52-1.63-4.6-8.21-11.26-7.74-16.35.58-6.2,6.69-9.44,12.17-6.45,4.45,2.43,6.68,11.31,9.91,14.78,2.43,2.61,6.76,1.59,7.59-1.88.64-2.69-1.76-4.71-1.8-7.07-.1-5.37,4.47-9.83,9.82-8.64Z"/>
  </g>
</svg>